<svg xmlns="http://www.w3.org/2000/svg" aria-hidden="true" style="position:absolute;width:0;height:0;overflow:hidden">
  <defs>
    <symbol id="icon-haven" viewBox="0 0 114 32">
      <path d="M6.332 17.994v12.453c0 .097-.006.192-.018.286l.001-.011q-.039.308-.172.479a.497.497 0 0 1-.062.067.707.707 0 0 1-.22.134l-.005.002q-.208.082-.524.093a2.848 2.848 0 0 1-.098.002H1.089c-.099 0-.197-.006-.293-.017l.012.001q-.307-.037-.486-.158a.635.635 0 0 1-.223-.278l-.002-.004q-.098-.231-.098-.607V3.317c0-.095.007-.189.021-.28l-.001.01q.022-.146.07-.265a.841.841 0 0 1 .112-.2L.2 2.584Q1.042 1.482 2.665.199c.047-.035.101-.069.157-.1L2.83.095q.086-.045.165-.07a.547.547 0 0 1 .171-.027.701.701 0 0 1 .344.092L3.507.088c.061.034.113.07.162.111L3.667.198c.279.214.507.398.731.588L4.369.762q.314.264.579.514c.062.058.118.112.173.167l-.002-.002c.206.202.403.41.592.625l.011.013c.131.149.265.313.393.482l.016.022a.867.867 0 0 1 .135.264l.002.006q.039.122.054.271c.006.058.01.126.01.194v9.725h.08c.162-.211.325-.399.498-.576l-.001.001q.253-.26.557-.523l.073-.063.015-.012q.591-.497 1.514-.86c.06-.027.179-.071.299-.113l.06-.018q1.172-.401 2.996-.401h.009c1.282 0 2.498.281 3.591.784l-.053-.022a5.952 5.952 0 0 1 2.271 1.811l.011.015c.166.213.332.454.484.705l.019.034c.29.484.529 1.044.69 1.636l.011.047q.215.782.308 1.711c.047.448.073.969.073 1.495v.042-.002 11.712c0 .097-.006.192-.018.286l.001-.011q-.039.308-.172.479a.497.497 0 0 1-.062.067.707.707 0 0 1-.22.134l-.005.002q-.208.082-.524.093a2.848 2.848 0 0 1-.098.002h-4.145c-.099 0-.197-.006-.293-.017l.012.001q-.306-.037-.485-.158a.635.635 0 0 1-.223-.278l-.002-.004q-.098-.231-.098-.607V19.791c0-.392-.027-.778-.078-1.155l.005.044q-.18-1.303-.8-2.026a1.553 1.553 0 0 0-.051-.057l.002.002a3.034 3.034 0 0 0-1.828-.962l-.016-.002a4.206 4.206 0 0 0-.648-.049h-.014.001-.033c-.32 0-.634.026-.94.076l.033-.005q-.902.149-1.485.61a4.469 4.469 0 0 0-1.311 1.695l-.011.029zm107.761.741V30.45c0 .096-.006.191-.018.283l.001-.011q-.039.308-.172.479a.497.497 0 0 1-.062.067.707.707 0 0 1-.22.134l-.005.002q-.208.082-.524.093a2.848 2.848 0 0 1-.098.002h-4.145c-.099 0-.197-.006-.293-.017l.012.001q-.307-.037-.486-.158a.635.635 0 0 1-.223-.278l-.002-.004q-.098-.231-.098-.607V19.733c0-.385-.027-.764-.078-1.135l.005.043q-.184-1.319-.837-2.038l-.013-.015.002.002a3.044 3.044 0 0 0-1.805-.949l-.016-.002a4.216 4.216 0 0 0-.669-.052h-.015.001q-1.064 0-1.798.308a2.67 2.67 0 0 0-.642.378l.005-.004a4.531 4.531 0 0 0-1.301 1.694l-.011.029v12.453c0 .097-.006.192-.018.286l.001-.011q-.039.308-.172.479a.566.566 0 0 1-.061.067.7.7 0 0 1-.221.134l-.005.002q-.208.082-.524.093a2.848 2.848 0 0 1-.098.002h-4.146c-.099 0-.197-.006-.293-.017l.012.001q-.307-.037-.486-.158a.635.635 0 0 1-.223-.278l-.002-.004q-.098-.231-.098-.607v-16.8c0-.095.007-.189.021-.28l-.001.01q.022-.146.07-.264a.825.825 0 0 1 .113-.2l-.001.002c.18-.238.353-.445.534-.645l-.007.007c.162-.179.32-.343.483-.503l.002-.002q.508-.499 1.216-1.058c.031-.026.108-.087.186-.147l.051-.038q.195-.15.378-.187a.588.588 0 0 1 .123-.013q.158 0 .346.102c.06.033.111.066.16.101l-.004-.003c.285.224.525.423.76.627l-.024-.02q.387.337.707.656c.309.308.599.635.867.98l.017.023c.044.056.102.133.159.212l.019.027h.1q.326-.421.962-.98l.042-.037.018-.015q.513-.445 1.337-.816c.127-.061.317-.141.511-.214l.066-.022c.3-.115.659-.215 1.029-.283l.04-.006q.916-.171 2.088-.171 1.883 0 3.587.762a5.993 5.993 0 0 1 2.259 1.787l.01.014c.175.222.349.471.507.73l.019.034q.808 1.335 1.018 3.395c.047.447.074.966.074 1.492v.045-.002zm-29.034 4.428h-8.596c.035.496.131.958.281 1.395l-.011-.038a3.853 3.853 0 0 0 1.236 1.783l.007.006a4.607 4.607 0 0 0 1.621.821l.032.008q.673.19 1.475.238c.161.01.35.016.54.016h.048c.393 0 .782-.023 1.163-.066l-.047.004q1.061-.123 1.799-.489.838-.416 1.295-.7c.104-.064.188-.121.27-.18l-.013.009a1.3 1.3 0 0 1 .787-.262h.012-.001l.067.001h-.003q.38 0 1.092.15a4.68 4.68 0 0 1 1.088.378l-.027-.012c.15.072.266.134.379.199l-.027-.014c.092.047.172.101.244.164l-.001-.001c.159.132.259.33.259.551v.008q0 .217-.07.589a4.85 4.85 0 0 1-.04.205l.009-.053c-.023.111-.035.163-.047.216l.012-.06q-.06.257-.165.656c-.085.32-.18.592-.295.853l.014-.037a5.5 5.5 0 0 1-.093.206l.013-.031a1.1 1.1 0 0 1-.144.203l.001-.001q-.099.112-.237.219a4.05 4.05 0 0 1-.21.139l-.022.013q-.393.244-1.061.59a6.176 6.176 0 0 1-.644.289l-.045.015q-.732.277-1.745.508c-.34.081-.77.155-1.208.207l-.058.006q-1.16.138-2.642.138-3.267 0-5.714-1.016a5.404 5.404 0 0 1-.248-.104l.071.028q-2.505-1.092-3.887-3.397t-1.383-5.951q0-5.47 2.805-8.276a9.374 9.374 0 0 1 5.176-2.62l.053-.007a12.921 12.921 0 0 1 2.175-.178h.053-.003q2.689 0 4.642.855c.212.092.369.168.523.249l-.045-.022a8.01 8.01 0 0 1 2.199 1.645l.004.004c.365.392.69.831.964 1.302l.019.035a8.12 8.12 0 0 1 1.037 3.271l.003.034c.033.309.052.668.052 1.031v.013-.001.045c0 .395-.031.783-.092 1.162l.005-.042q-.099.608-.311 1.084a2.76 2.76 0 0 1-.82 1.073l-.006.004q-1.223.942-3.567.942zM42.96 19.236v11.341q0 .381-.21.651a.637.637 0 0 1-.284.204l-.004.001q-.11.041-.247.056c-.051.006-.11.009-.17.009H39.025c-.102 0-.203-.008-.301-.023l.011.001a1.483 1.483 0 0 1-.283-.072l.01.003a.977.977 0 0 1-.258-.144l.002.002q-.111-.085-.215-.208l-1.242-1.603h-.141a5.232 5.232 0 0 1-2.439 1.931l-.036.012a8.335 8.335 0 0 1-1.849.481l-.046.005c-.492.073-1.061.115-1.639.115h-.044.002q-2.945 0-4.679-1.653t-1.733-4.559v-.043c0-.776.123-1.524.35-2.225l-.014.051a6.52 6.52 0 0 1 .232-.621l-.017.043a4.972 4.972 0 0 1 1.002-1.49l-.001.001c.278-.287.58-.548.902-.781l.02-.014q.997-.721 2.576-1.235c.296-.103.721-.226 1.152-.333l.119-.025a18.14 18.14 0 0 1 1.893-.361l.109-.013q1.885-.264 4.32-.328v-.035c0-.321-.026-.636-.077-.943l.005.033q-.184-1.104-.839-1.68a2.848 2.848 0 0 0-.952-.542l-.02-.006q-.426-.147-.949-.208a6.703 6.703 0 0 0-.792-.045h-.024.001q-1.643 0-2.685.561c-.342.177-.461.243-.58.309l.216-.111q-.549.302-.804.469a2.109 2.109 0 0 0-.141.099l.006-.004q-.27.231-.651.184l-.036-.005.006.001a6.255 6.255 0 0 1-.675-.138l.044.01a7.576 7.576 0 0 1-.578-.169l.057.017c-.438-.137-.648-.21-.858-.286l.224.07a20.144 20.144 0 0 1-.955-.338l.277.092a.804.804 0 0 1-.088-.043l.004.002q-.064-.036-.136-.089a.34.34 0 0 1-.119-.169l-.001-.002a.462.462 0 0 1-.02-.097v-.002c0-.028.001-.055.003-.082v.004q.002-.038.007-.081c.004-.044.008-.075.013-.107l-.002.015.015-.102-.003.018q.026-.16.087-.467.055-.272.146-.633c.067-.281.1-.402.133-.522l-.039.162c.046-.18.073-.273.102-.366l-.023.087q.117-.393.222-.633c.064-.118.138-.22.223-.312l-.001.001q.117-.128.271-.249c.029-.023.064-.049.1-.075l.009-.006c.06-.047.127-.091.198-.13l.007-.004q.499-.278 1.859-.768c.34-.125.752-.238 1.176-.319l.052-.008q1.303-.252 3.144-.288c.183-.004.399-.006.615-.006h.002q7.102 0 8.598 5.457c.254.941.4 2.022.4 3.137l-.001.171v-.009zm10.48-5.39v-.1c.001.317.018.627.049.934l-.003-.04q.095.999.383 2.332c.054.279.069.343.084.408l-.042-.216q.471 2.114 1.292 4.458a28.826 28.826 0 0 0 1.33 3.22l-.077-.176c.272.572.489.986.717 1.393l-.066-.129h.1a21.14 21.14 0 0 0 1.369-2.636l.055-.143c-.001.019.059-.122.118-.263l.06-.164a28.81 28.81 0 0 0 1.127-3.221l.055-.225a22.1 22.1 0 0 0 .372-1.395l.052-.258c.082-.315.189-.826.282-1.342l.026-.171c.031-.148.077-.437.118-.727l.014-.121q.115-.848.118-1.455v-.041.081-.009c0-.095.007-.189.021-.28l-.001.01q.022-.146.07-.264a.822.822 0 0 1 .112-.2l-.001.002c.192-.233.379-.44.572-.641l-.003.003c.167-.173.334-.337.505-.497l.008-.007c.18-.168.373-.34.571-.506l.022-.018q.413-.346.909-.718c.052-.038.111-.074.172-.106l.008-.004q.18-.091.341-.091.28 0 .521.201c.301.22.54.405.775.594l-.04-.031q.438.352.788.679.621.581 1.062 1.142.176.229.198.597c.002.031.003.067.003.103v.001a6.765 6.765 0 0 1-.062.754l.004-.035q-.1.768-.371 1.821c-.087.36-.133.525-.18.69l.048-.195a33.92 33.92 0 0 1-.715 2.316l.081-.267q-.363 1.072-.819 2.239a53.396 53.396 0 0 1-2.181 4.908l.147-.32q-1.122 2.254-2.284 3.917c-.151.221-.284.402-.422.578l.018-.024q-.406.519-.76.811a2.123 2.123 0 0 1-.092.073l-.007.005c-.124.09-.266.166-.419.218l-.011.003q-.562.199-1.513.199H55.897a8.17 8.17 0 0 1-.667-.027l.029.002q-.915-.075-1.328-.376-.489-.356-1.081-1.232a7.942 7.942 0 0 1-.123-.184l-.028-.046a28.043 28.043 0 0 1-1.011-1.709l-.084-.167a32.002 32.002 0 0 1-.967-1.881l-.112-.26c-.558-1.125-1.213-2.645-1.805-4.196l-.138-.413c-.146-.334-.409-1.064-.656-1.801l-.117-.4q-.355-1.085-.62-2.067a14.175 14.175 0 0 1-.221-.857l-.031-.16q-.206-.926-.254-1.582a5.338 5.338 0 0 1-.015-.376V13.758c0-.104.013-.205.038-.302l-.002.008a.894.894 0 0 1 .185-.36l-.001.001c.259-.316.521-.6.798-.868l.003-.003q.463-.449 1.039-.913c.212-.172.467-.369.727-.56l.058-.04q.3-.201.541-.201a.779.779 0 0 1 .279.055l-.005-.002q.099.037.2.101l.072.049-.004-.003c.277.198.489.357.698.52l-.047-.036q.349.271.645.528c.099.086.183.161.266.237l-.008-.007c.205.188.395.376.579.571l.005.006c.163.173.323.357.475.548l.013.018a.853.853 0 0 1 .16.295l.002.006q.039.125.052.275c.005.049.007.106.007.164v.001zm22.983 5.209h6.552c.132 0 .26-.016.382-.046l-.011.002q.63-.159.63-.898v-.037c0-.439-.075-.86-.214-1.252l.008.026a3.293 3.293 0 0 0-.688-1.134l.002.002a2.815 2.815 0 0 0-1.243-.774l-.02-.005q-.458-.143-1.014-.18a5.892 5.892 0 0 0-.392-.013h-.048c-.378 0-.745.044-1.098.126l.032-.006q-.787.187-1.331.666a2.86 2.86 0 0 0-.411.449l-.006.008a5.732 5.732 0 0 0-.859 1.739l-.01.041a7.29 7.29 0 0 0-.259 1.249l-.004.037zm-39.674 5.411v-2.224h-.051c-.495 0-.986.012-1.475.037l.069-.003q-1.317.067-2.213.264a6.385 6.385 0 0 0-.553.145l.045-.012c-.281.086-.51.172-.733.271l.041-.016q-.702.31-1.05.719a1.558 1.558 0 0 0-.108.142l-.004.006q-.461.691-.461 1.493v.024c0 .2.02.396.059.585l-.003-.019q.145.697.666 1.023c.264.165.572.291.901.361l.019.003q.374.081.806.086h.097a5.8 5.8 0 0 0 1.061-.098l-.036.006q1.074-.202 1.721-.85c.227-.225.435-.468.62-.728l.012-.017q.412-.588.571-1.199zm9.918-10.62zm20.919-.08z"/>
    </symbol>
    <symbol id="icon-petal" viewBox="0 0 95 32">
      <path d="M9.688 7.71h-.981c-.206 0-.409.013-.608.038l.024-.002q-.657.083-1.019.362c-.064.049-.12.102-.171.161l-.001.001a1.608 1.608 0 0 0-.269.466l-.004.011q-.174.461-.202 1.166c-.003.08-.005.175-.005.27v20.16q0 .52-.188.761a.491.491 0 0 1-.061.067.695.695 0 0 1-.22.134l-.005.002q-.208.081-.522.092l-.102.002H1.099q-.521 0-.778-.174a.645.645 0 0 1-.223-.277l-.002-.004q-.098-.23-.098-.605V8.07c0-.397.013-.791.039-1.181l-.003.053q.077-1.155.317-1.945c.015-.054.021-.072.027-.09l-.01.036c.118-.381.3-.712.537-.995l-.004.005c.246-.287.548-.519.889-.68l.016-.007a3.96 3.96 0 0 1 .779-.273l.029-.006q.936-.23 2.318-.23h4.754q5.624 0 8.384 2.163l.118.094-.013-.01a7.13 7.13 0 0 1 2.341 3.633l.011.05q.341 1.202.394 2.653c.006.161.01.35.01.54v.082c0 .814-.071 1.611-.207 2.386l.012-.082q-.337 1.903-1.253 3.293a8.795 8.795 0 0 1-3.701 3.214l-.054.022a11.583 11.583 0 0 1-4.833 1.039h-.053.003-.012c-.146 0-.288-.018-.424-.052l.012.003a1.335 1.335 0 0 1-.459-.212l.004.003a5.17 5.17 0 0 1-.288-.213l.011.008q-.281-.22-.622-.535a15.578 15.578 0 0 1-.407-.391q-.22-.22-.459-.472l-.275-.295-.019-.02q-.223-.26-.239-.468l-.001-.03v-.001q0-.22.24-.499 1.238-1.398 2.257-2.057a.811.811 0 0 1 .219-.101l.006-.001q.191-.057.454-.057h.026c.886 0 1.686-.366 2.258-.955l.001-.001.061-.062.001-.001c.272-.287.488-.632.626-1.013l.007-.02q.317-.85.317-2.088v-.01l-.002-.174v.009a8.1 8.1 0 0 0-.099-1.246l.006.046q-.098-.616-.301-1.1a2.886 2.886 0 0 0-.81-1.131l-.004-.003q-1.188-.979-3.246-.979zm28.864 15.381h-8.569c.035.495.131.955.28 1.391l-.011-.038a3.843 3.843 0 0 0 1.232 1.778l.007.006a4.578 4.578 0 0 0 1.616.818l.032.008q.671.19 1.471.237c.161.01.35.016.54.016h.046c.392 0 .78-.023 1.16-.066l-.046.004q.578-.067 1.061-.206c.284-.081.527-.177.759-.292l-.026.012c.323-.156.491-.242.658-.331l-.146.07q.706-.369 1.036-.608c.216-.163.488-.261.784-.261h.012-.001l.066.001h-.003c.085 0 .168.005.251.013l-.011-.001q.26.023.619.092c.153.027.23.043.307.06l-.078-.014q.709.15 1.408.549c.092.047.171.101.243.163l-.002-.001a.713.713 0 0 1 .258.549v.008c0 .062-.004.122-.01.182l.001-.008q-.016.175-.061.413a4.85 4.85 0 0 1-.04.205l.01-.053q-.046.214-.139.575c-.079.339-.1.418-.122.496l.06-.262c-.084.319-.18.59-.294.851l.014-.037a3.747 3.747 0 0 1-.093.205l.013-.031q-.12.22-.38.419a3.988 3.988 0 0 1-.209.139l-.022.013q-.391.243-1.058.588a6.16 6.16 0 0 1-.643.288l-.045.015q-.365.139-.8.265a11.64 11.64 0 0 1-.83.22l-.11.021c-.339.08-.768.155-1.204.207l-.058.006q-1.156.137-2.633.137-3.376 0-5.873-1.089t-3.875-3.386a8.766 8.766 0 0 1-.977-2.386l-.013-.062q-.28-1.117-.358-2.429c-.02-.312-.031-.676-.031-1.043v-.014.001-.115c0-1.073.099-2.122.29-3.139l-.016.105q.601-3.178 2.524-5.101a9.344 9.344 0 0 1 5.16-2.612l.053-.007a12.94 12.94 0 0 1 2.168-.178h.054-.003q2.68 0 4.627.852c.211.092.367.168.521.248l-.045-.021a7.981 7.981 0 0 1 2.193 1.639l.004.004c.364.391.688.828.961 1.298l.019.035a8.106 8.106 0 0 1 1.034 3.261l.003.034c.033.308.052.666.052 1.029v.012-.001.046c0 .394-.031.78-.092 1.157l.005-.041q-.098.607-.31 1.08a2.743 2.743 0 0 1-.817 1.07l-.006.004c-.347.263-.75.475-1.186.613l-.028.008q-.981.318-2.341.318zm43.426-3.915v11.306q0 .379-.21.649a.64.64 0 0 1-.283.203l-.004.001q-.176.065-.421.065h-2.996q-.32 0-.569-.09a.93.93 0 0 1-.257-.144l.002.002q-.095-.073-.185-.174l-.027-.031-.002-.002-1.238-1.598h-.14q-.919 1.338-2.467 1.938a8.33 8.33 0 0 1-1.844.479l-.046.005a11.38 11.38 0 0 1-1.636.115h-.042.002-.065c-.67 0-1.322-.078-1.947-.225l.057.011a5.777 5.777 0 0 1-2.713-1.438l.003.003a5.425 5.425 0 0 1-1.562-2.861l-.006-.034a7.838 7.838 0 0 1-.161-1.599v-.052.003q0-1.498.549-2.787a4.957 4.957 0 0 1 .999-1.486l-.001.001c.277-.286.578-.546.9-.779l.02-.014q.994-.718 2.568-1.231c.295-.103.719-.226 1.149-.332l.118-.025q2.467-.599 6.302-.699v-.037c0-.32-.026-.633-.076-.938l.005.033q-.184-1.1-.837-1.675a2.857 2.857 0 0 0-.949-.54l-.02-.006q-.735-.253-1.757-.253-1.638 0-2.677.559c-.341.176-.46.242-.578.308l.216-.111q-.547.301-.801.468a2.572 2.572 0 0 0-.141.098l.005-.004q-.269.231-.649.184l-.036-.005.006.001a6.224 6.224 0 0 1-.673-.137l.044.01a7.875 7.875 0 0 1-.576-.168l.057.017c-.437-.137-.646-.21-.855-.285l.223.07a21.705 21.705 0 0 1-.952-.337l.276.092a.656.656 0 0 1-.088-.043l.004.002q-.04-.022-.083-.052l-.056-.04.004.003a.343.343 0 0 1-.119-.168l-.001-.002a.516.516 0 0 1-.021-.097v-.002c0-.028.001-.055.003-.082v.004q.002-.038.007-.081l.012-.106-.002.015q.016-.123.073-.414c.04-.228.049-.273.058-.319l-.032.184c.034-.173.057-.278.082-.383l-.014.071q.07-.299.172-.677c.046-.18.073-.272.102-.365l-.023.087q.089-.3.171-.511c.024-.062.041-.102.058-.141l-.008.021q.18-.34.599-.639c.06-.047.127-.091.197-.129l.007-.004q.375-.209 1.238-.538c-.04.004.164-.073.368-.148l.247-.08c.339-.124.75-.237 1.172-.318l.052-.008q1.511-.293 3.75-.293l.181-.001c1.177 0 2.319.153 3.407.44l-.093-.021q3.999 1.09 5.077 5.022c.253.938.399 2.016.399 3.127l-.001.171v-.009zm-32.839 5.793v-9.368h-2.257q-.52 0-.762-.188a.491.491 0 0 1-.067-.061.695.695 0 0 1-.134-.22l-.002-.005q-.081-.208-.092-.522a2.841 2.841 0 0 1-.002-.097V12.046q0-.521.173-.778a.645.645 0 0 1 .277-.223l.004-.002q.23-.097.605-.097h2.257V7.73q0-.32.089-.542a.834.834 0 0 1 .112-.199l-.001.002c.242-.312.484-.589.74-.851l-.002.002q.398-.41.892-.842c.239-.209.508-.434.782-.652l.044-.034c.047-.034.101-.069.157-.099l.008-.004q.182-.097.334-.097c.098.001.19.024.272.064l-.004-.002q.086.04.172.106l.041.033-.002-.002q.859.659 1.448 1.238c.206.202.402.409.59.624l.011.013c.13.148.264.312.392.48l.016.022q.156.203.19.539c.006.058.01.126.01.194v3.222h3.536q.52 0 .762.188a.491.491 0 0 1 .067.061.714.714 0 0 1 .134.22l.002.005q.082.208.092.522l.002.102V14.5q0 .521-.173.778a.645.645 0 0 1-.277.223l-.004.002q-.23.097-.605.097H55.43v8.327c0 .385.034.762.098 1.129l-.006-.039q.359 1.992 2.122 2.048l.103.002h.009c.133 0 .264-.008.392-.024l-.015.002c.107-.013.2-.03.291-.051l-.017.003a4.7 4.7 0 0 0 .288-.073l-.041.01q.112-.031.209-.065l.086-.029-.022.007c.029-.012.081-.032.134-.049l.024-.007q.263-.085.4-.069a.186.186 0 0 1 .034.006h-.002c.04.011.075.031.102.059q.106.1.199.358l.003.007.005.016 1.159 3.096a.78.78 0 0 1 .033.111l.001.007q.077.337-.16.528a.695.695 0 0 1-.11.072l-.004.002q-.291.136-1.379.506c.528-.16.505-.152.482-.144l-.551.167a5.187 5.187 0 0 1-.753.192l-.034.005q-.821.15-1.996.183c-.205.006-.446.01-.688.01h-.015.001l-.141.001c-.905 0-1.779-.13-2.605-.373l.065.016q-3.991-1.214-3.991-6.575zm45.023 4.934-4.175 1.918c-.03.015-.09.04-.152.064l-.032.011q-.262.099-.399.105h-.017q-.18 0-.38-.14a1.41 1.41 0 0 1-.249-.231l-.002-.002q-.364-.416-.797-1.335a4.538 4.538 0 0 1-.301-.866l-.007-.032q-.229-.937-.272-2.302c-.006-.19-.01-.413-.01-.637V3.318q0-.32.089-.542a.815.815 0 0 1 .112-.199l-.001.002c.242-.312.484-.589.74-.851l-.002.002q.398-.41.892-.842c.239-.21.508-.434.782-.652l.044-.034c.047-.034.101-.069.157-.099l.008-.004q.182-.097.335-.097a.697.697 0 0 1 .343.092l-.003-.002c.061.034.113.07.161.111l-.001-.001q.859.659 1.448 1.238c.206.202.402.409.59.624l.011.013c.13.148.264.312.391.48l.016.022q.156.203.19.539c.006.058.01.126.01.194v21.946c0 .319.011.636.033.949l-.002-.042q.052.733.189 1.313.22.929.519 1.488c.022.042.046.093.066.145l.003.009q.16.434-.152.678a.886.886 0 0 1-.171.104l-.006.002zM29.943 18.996h6.512q.866 0 .996-.678c.015-.076.023-.162.023-.251v-.048c0-.438-.075-.857-.213-1.248l.008.026a3.28 3.28 0 0 0-.686-1.13l.002.002a2.8 2.8 0 0 0-1.24-.771l-.02-.005q-.616-.192-1.407-.192h-.042c-.377 0-.743.044-1.095.126l.032-.006q-.785.187-1.327.664c-.154.136-.29.285-.41.447l-.006.008a5.687 5.687 0 0 0-.856 1.734l-.01.041a7.264 7.264 0 0 0-.258 1.245l-.004.037zm45.842 5.394v-2.217q-2.777 0-4.165.43-1.237.382-1.736.971a1.763 1.763 0 0 0-.108.142l-.004.006c-.287.416-.459.93-.459 1.485v.003q0 1.159.719 1.608t1.778.449q1.838 0 2.776-.939.823-.823 1.124-1.691c.022-.058.047-.14.07-.224l.005-.023z"/>
    </symbol>
  </defs>
</svg>
