<svg xmlns="http://www.w3.org/2000/svg" aria-hidden="true" style="position:absolute;width:0;height:0;overflow:hidden">
  <defs>
    <symbol id="icon-haven" viewBox="0 0 200 50" width="270" height="270">
      <path
        d="M118.945 31.385h-2.989L117.055 0h.527l22.11 26.725h.264l-.967-26.11h2.989L140.879 32h-.527l-22.11-26.725h-.264l.967 26.11zm-115.956 0H0V.616h2.989v14.242h18.462V.616h2.989v30.769h-2.989V15.912H2.989v15.473zM72.044 32 58.066.615h3.297l12 27.341h.264L83.693.615h3.297L73.012 32h-.967zm35.341-.615H93.847V.616h13.407V2.77l-7.692-1.011c.095.004-.186-.033-.468-.067l-.354-.035q-1.116-.133-1.686-.156a4.822 4.822 0 0 0-.217-.005h-.001v13.407c.097 0 .192-.002.286-.005h-.016q.706-.02 2.455-.127l7.209-.44v2.022l-7.209-.44c.362.015.101-.001-.16-.017l-.593-.028q-1.509-.087-1.973-.087v14.725c.167-.001.33-.007.492-.018l-.024.001q.779-.047 2.167-.23c.425-.048.471-.054.516-.06l-.382.043 7.78-1.011v2.154zm-72.88 0h-3.209L43.12.616h2.725l11.824 30.769H54.46l-5.451-14.418h-9.978l-4.527 14.418zm9.187-28.484h-.264L39.34 15.912h9.275L43.692 2.901z" />
    </symbol>
    <symbol id="icon-petal" viewBox="0 0 200 50" width="320" height="320">
      <path
        d="M40.137 32h-14.08V0H40v2.24l-8-1.051c.099.004-.194-.034-.487-.07l-.368-.037Q29.984.944 29.392.92a5.174 5.174 0 0 0-.226-.005h-.001v13.943c.101 0 .199-.002.297-.005h-.016q.734-.021 2.554-.132l7.497-.457v2.103L32 15.91c.377.016.105-.001-.166-.017l-.616-.029q-1.569-.091-2.052-.091v15.314a7.83 7.83 0 0 0 .512-.019l-.025.001q.81-.049 2.254-.239c.442-.05.489-.056.537-.063l-.398.044 8.091-1.051V32zm20.022 0H57.05V.915a6.207 6.207 0 0 0-.389.014l.019-.001q-.786.047-2.464.261l-8.96 1.143V.001h26.697v2.331l-8.96-1.143c.136.008-.162-.03-.46-.066l-.41-.041Q60.951.944 60.379.92a4.962 4.962 0 0 0-.22-.005V32zm15.04 0h-3.337L84.159 0h2.834L99.29 32h-3.337l-5.668-14.994H79.908L75.199 32zm31.497 0V0h3.109v31.085q.655 0 1.881-.156c.53-.064.824-.106 1.118-.15l-.256.032 7.588-1.143v2.331h-13.44zM3.109 32H0V0h5.831C6.964 0 8.076.09 9.16.263L9.041.247q1.749.282 3.16.886a9.705 9.705 0 0 1 2.13 1.238l-.023-.017a7.603 7.603 0 0 1 3.013 5.512l.001.025c.031.303.048.655.048 1.011v.013-.001l.001.1a9.25 9.25 0 0 1-.45 2.859l.018-.066a7.523 7.523 0 0 1-2.613 3.652l-.019.014q-3.063 2.354-8.594 2.354H3.107v14.171zM5.714 1.098H3.108v15.634h2.606l.166.001c1.089 0 2.147-.134 3.157-.388l-.089.019q5.131-1.328 5.131-7.45l.001-.169c0-1.077-.163-2.115-.465-3.093l.02.074q-1.484-4.629-7.921-4.629zm79.039 1.28h-.274l-4.251 13.531h9.646l-5.12-13.531z" />
    </symbol>
  </defs>
</svg>