<svg xmlns="http://www.w3.org/2000/svg" aria-hidden="true" style="position:absolute;width:0;height:0;overflow:hidden">
  <defs>
    <symbol id="icon-Petal-haven" viewBox="0 0 30 15">
      <path
        d="M14.367 18.358q-.097.18-1.162 2.336-.706 1.438-1.417 2.178-.713.74-1.086.74-.165 0-.165-.153l.041-.165q.153-.415.947-1.95.795-1.535 1.487-2.724.65-1.133 1.273-2.191.622-1.058.927-1.555l.304-.499q.027-.041.068-.11.041-.07.187-.249.145-.18.298-.311t.359-.242q.208-.111.401-.111.181 0 .181.097 0 .125-.167.361-1.036 1.769-2.212 4.023-.014.029-.014.056 0 .041.056.041.871 0 1.611-.332.74-.331 1.203-.864.463-.532.72-1.14.255-.609.255-1.203 0-.844-.636-1.272-.636-.429-1.494-.429-.65 0-1.264.194-.616.192-1.079.663-.463.47-.463 1.12 0 .388.208.747.068.138.068.194 0 .083-.111.083-.027 0-.11-.028-.041-.013-.111-.054-.068-.043-.248-.167-.18-.124-.318-.262t-.249-.366q-.111-.228-.111-.463 0-.858 1.058-1.438 1.059-.58 2.399-.58.65 0 1.239.11.587.111 1.148.354.559.241.891.697.332.458.332 1.079 0 .927-.478 1.666-.476.74-1.244 1.175-.767.436-1.638.664-.871.228-1.756.228-.014-.014-.041-.014-.056 0-.083.07zm5.31-.221q.165-.346.165-.609 0-.221-.138-.221-.083 0-.187.048t-.158.103l-.07.056q-.429.373-1.072 1.363-.643.988-.643 1.264 0 .056.029.056.083 0 .366-.138.282-.138.815-.65.532-.512.892-1.272zm-.623 3.166q.733-.677 2.103-2.239.041-.043.068-.043.027 0 .027.056 0 .264-.207.512-1.024 1.135-1.812 1.895-.58.582-1.383 1.113-.801.532-1.327.532-.636 0-.636-.884 0-1.467 1.085-3.071 1.086-1.604 2.51-2.171.594-.248 1.078-.248.54 0 .54.428 0 .803-1.135 1.839-1.133 1.038-2.543 1.577-.056.014-.097.097-.208.567-.208 1.009 0 .497.373.497.594 0 1.562-.898zm3.194-.567q.58-.58 1.534-1.672.043-.043.07-.043.027 0 .027.056 0 .264-.207.512-1.024 1.135-1.812 1.895-1.659 1.604-2.198 1.604-.194 0-.194-.248 0-.291.221-.871.221-.582.443-1.024l.221-.429q.318-.567 1.051-1.936.733-1.369 1.417-2.586.684-1.216 1.293-2.198h-1.092q-.138 0-.138-.07 0-.068.111-.138.11-.068.234-.068.305 0 1.065-.014.679-1.065 1.162-1.686.429-.54.594-.54.097 0 .097.125 0 .289-.525 1.244l-.47.857h1.424q.124 0 .124.07 0 .221-.401.221h-1.3q-3.195 6.056-3.36 6.346-.58 1.065-.58 1.383 0 .097.068.097.194 0 1.12-.885zm4.246 1.217q-1.148 1.051-1.577 1.051-.194 0-.194-.221 0-.277.242-.844t.49-.995l.249-.429q.056-.097.056-.124 0-.029-.029-.029-.056 0-.207.153-.415.456-.948.975-.532.519-.864.808l-.318.277q-.539.415-.83.415-.305 0-.305-.469 0-.235.133-.72.131-.483.2-.65.318-.774.795-1.507.478-.733 1.128-1.404.649-.67 1.514-1.085.864-.415 1.79-.415.774 0 .774.235 0 .138-.345.138-1.273 0-2.386 1.085-1.113 1.086-1.805 2.496-.192.388-.192.65 0 .153.097.153.165 0 .428-.235.167-.153.45-.401.282-.249.919-.955.636-.704 1.009-1.313.054-.111.172-.264.117-.151.449-.408.332-.255.664-.255.18 0 .18.097 0 .027-.041.097-.056.11-.311.553-.257.442-.478.837-.221.393-.47.857-.249.463-.393.795-.145.331-.145.442 0 .083.068.083.208 0 1.009-.801.609-.637 1.424-1.562.043-.043.07-.043.027 0 .027.056 0 .264-.207.512-1.356 1.507-2.295 2.365zm5.116-5.863q.981-.691 1.762-1.569t1.19-1.618q.408-.74.614-1.279.208-.539.208-.774 0-.138-.097-.138-.194 0-.47.277-.526.525-1.189 1.521-.664.995-1.072 1.708-.408.711-1.058 1.9.056 0 .111-.027zm-1.48 4.646q.58-.58 1.534-1.672.043-.043.07-.043.027 0 .027.056 0 .264-.207.512-1.024 1.135-1.812 1.895-1.728 1.632-2.198 1.632-.208 0-.208-.291 0-.153.036-.332.034-.18.117-.393.083-.215.145-.359l.18-.415.16-.368q.386-.871 2.378-4.59 2.724-4.964 5.005-6.098.332-.165.664-.165.388 0 .388.359 0 .83-.567 1.819-.567.988-1.383 1.818-.815.83-1.597 1.453-.783.622-1.349.939-.083.029-.153.125-.609.981-1.189 2.108-.58 1.126-.871 1.776l-.277.637q-.07.207-.07.277 0 .124.097.124.277 0 1.079-.803zm7.688 0q.58-.58 1.535-1.672.041-.043.068-.043.029 0 .029.056 0 .264-.208.512-1.024 1.135-1.812 1.895-1.659 1.535-2.184 1.535-.208 0-.208-.262 0-.499.567-1.515t1.128-1.895q.559-.877.559-1.029 0-.083-.083-.083-.332 0-1.259 1.022-.925 1.024-1.562 1.839-.704.885-1.223 1.411-.519.526-.684.594l-.18.083q-.125 0-.125-.138 0-.221.249-.788.249-.566.498-1.024l.249-.456 2.157-3.872q2.545-4.493 4.01-6.388.415-.553.58-.553.084 0 .084.111 0 .289-.443 1.189-2.171 3.913-3.014 5.42-.512.912-.927 1.625-.415.711-.589 1.002l-.297.505q-.124.215-.194.366-.014.041-.014.083 0 .07.029.07.027 0 .11-.083 3.098-3.444 4.066-3.444.194 0 .194.194 0 .056-.056.242-.056.187-.318.754-.262.566-.691 1.257-.262.388-.664 1.106-.401.72-.401.941 0 .124.125.124.041 0 .117-.034.076-.034.172-.117.097-.084.172-.153l.222-.201q.144-.131.214-.187zm4.245 1.217q-1.148 1.051-1.577 1.051-.194 0-.194-.221 0-.277.242-.844t.49-.995l.249-.429q.056-.097.056-.124 0-.029-.029-.029-.054 0-.207.153-.415.456-.948.975-.532.519-.864.808l-.318.277q-.539.415-.83.415-.304 0-.304-.469 0-.235.131-.72.131-.483.2-.65.319-.774.795-1.507.478-.733 1.128-1.404.65-.67 1.514-1.085.864-.415 1.79-.415.774 0 .774.235 0 .138-.345.138-1.273 0-2.385 1.085-1.113 1.086-1.805 2.496-.194.388-.194.65 0 .153.097.153.165 0 .429-.235.165-.153.449-.401.284-.249.919-.955.636-.704 1.009-1.313.056-.111.172-.264.118-.151.449-.408.332-.255.664-.255.18 0 .18.097 0 .027-.041.097-.056.11-.311.553-.257.442-.478.837-.221.393-.47.857-.248.463-.393.795-.145.331-.145.442 0 .083.068.083.208 0 1.011-.801.607-.637 1.424-1.562.041-.043.068-.043.029 0 .029.056 0 .264-.208.512-1.354 1.507-2.295 2.365zm6.872-5.531q-.014.386-2.088 3.333-.041.054-.041.083 0 .097.359.097.677 0 1.508-.982.013-.014.041-.014.068 0 .068.138 0 .153-.332.526-.594.663-1.451.663-.138 0-.249-.02-.11-.021-.165-.041-.056-.021-.07-.021l-.068.041q-.774.941-1.424 1.639-.65.698-.927.934l-.262.221q-.222.165-.346.165-.165 0-.165-.262 0-.912.726-2.925.726-2.011 1.043-2.523.443-.706 1.093-.706.096 0 .096.097 0 .07-.11.291-1.203 2.503-1.494 4.272 0 .153.056.153t.165-.097q.596-.429 1.341-1.494.029-.041.029-.096-.056-.125-.056-.332 0-.83.837-1.846t1.694-1.334q.083-.029.111-.029.083 0 .083.07zm2.116 1.715q.165-.346.165-.609 0-.221-.138-.221-.083 0-.187.048-.103.048-.158.103l-.07.056q-.428.373-1.071 1.363-.644.988-.644 1.264 0 .056.029.056.083 0 .366-.138.284-.138.815-.65.533-.512.892-1.272zm-.623 3.166q.734-.677 2.103-2.239.041-.043.068-.043.029 0 .029.056 0 .264-.208.512-1.024 1.135-1.81 1.895-.582.582-1.384 1.113-.801.532-1.327.532-.636 0-.636-.884 0-1.467 1.086-3.071 1.085-1.604 2.509-2.171.594-.248 1.079-.248.539 0 .539.428 0 .803-1.133 1.839-1.135 1.038-2.545 1.577-.056.014-.097.097-.208.567-.208 1.009 0 .497.373.497.594 0 1.562-.898zm5.421.18q-1.618 1.521-2.13 1.521-.235 0-.235-.248 0-.153.07-.381.068-.228.172-.456.104-.228.201-.422.096-.194.192-.359.097-.167.097-.181.208-.372.623-1.043.415-.67.663-1.106.249-.435.249-.532 0-.07-.07-.07l-.192.07q-.637.456-1.521 1.417-.885.961-1.453 1.694l-.567.72q-.18.262-.318.428-.138.167-.393.325-.257.16-.519.16-.194 0-.194-.111 0-.11.264-.643.262-.532.525-1.016l.262-.47 1.356-2.378q.208-.346.339-.532.131-.187.366-.47.235-.284.505-.422.269-.138.573-.167.111 0 .111.097 0 .084-.041.138-.318.499-.975 1.646-.657 1.148-.837 1.493-.041.083-.041.125 0 .027.027.027.029 0 .14-.083.262-.305.684-.761.422-.456 1.431-1.376 1.009-.919 1.659-1.237.151-.07.289-.07.194 0 .194.222-.11.65-1.065 2.225-1.051 1.729-1.051 2.047 0 .111.097.111.068 0 .158-.048t.201-.138q.111-.09.187-.16.076-.068.201-.187.124-.117.151-.145.582-.58 1.535-1.672.041-.043.07-.043.027 0 .027.056 0 .264-.207.512-1.024 1.135-1.812 1.895z" />
    </symbol>
  </defs>
</svg>