<svg aria-hidden="true" style="position: absolute; width: 0; height: 0; overflow: hidden;" version="1.1"
  xmlns="http://www.w3.org/2000/svg" xmlns:xlink="http://www.w3.org/1999/xlink">
  <defs>
    <symbol id="icon-Petal-haven" viewBox="0 0 67 32">
      <path
        d="M14.367 18.358v0 0q-0.097 0.18-1.162 2.336v0 0q-0.706 1.438-1.417 2.178v0 0q-0.713 0.74-1.086 0.74v0 0q-0.165 0-0.165-0.153v0l0.041-0.165q0.153-0.415 0.947-1.95v0 0q0.795-1.535 1.487-2.724v0 0q0.65-1.133 1.273-2.191v0 0q0.622-1.058 0.927-1.555v0l0.304-0.499q0.027-0.041 0.068-0.11v0 0q0.041-0.070 0.187-0.249v0 0q0.145-0.18 0.298-0.311v0 0q0.153-0.131 0.359-0.242v0 0q0.208-0.111 0.401-0.111v0 0q0.181 0 0.181 0.097v0 0q0 0.125-0.167 0.361v0 0q-1.036 1.769-2.212 4.023v0 0q-0.014 0.029-0.014 0.056v0 0q0 0.041 0.056 0.041v0 0q0.871 0 1.611-0.332v0 0q0.74-0.331 1.203-0.864v0 0q0.463-0.532 0.72-1.14v0 0q0.255-0.609 0.255-1.203v0 0q0-0.844-0.636-1.272v0 0q-0.636-0.429-1.494-0.429v0 0q-0.65 0-1.264 0.194v0 0q-0.616 0.192-1.079 0.663v0 0q-0.463 0.47-0.463 1.12v0 0q0 0.388 0.208 0.747v0 0q0.068 0.138 0.068 0.194v0 0q0 0.083-0.111 0.083v0 0q-0.027 0-0.11-0.028v0 0q-0.041-0.013-0.111-0.054v0 0q-0.068-0.043-0.248-0.167v0 0q-0.18-0.124-0.318-0.262v0 0q-0.138-0.138-0.249-0.366v0 0q-0.111-0.228-0.111-0.463v0 0q0-0.858 1.058-1.438v0 0q1.059-0.58 2.399-0.58v0 0q0.65 0 1.239 0.11v0 0q0.587 0.111 1.148 0.354v0 0q0.559 0.241 0.891 0.697v0 0q0.332 0.458 0.332 1.079v0 0q0 0.927-0.478 1.666v0 0q-0.476 0.74-1.244 1.175v0 0q-0.767 0.436-1.638 0.664v0 0q-0.871 0.228-1.756 0.228v0 0q-0.014-0.014-0.041-0.014v0 0q-0.056 0-0.083 0.070zM19.677 18.137v0 0q0.165-0.346 0.165-0.609v0 0q0-0.221-0.138-0.221v0 0q-0.083 0-0.187 0.048v0 0q-0.104 0.048-0.158 0.103v0l-0.070 0.056q-0.429 0.373-1.072 1.363v0 0q-0.643 0.988-0.643 1.264v0 0q0 0.056 0.029 0.056v0 0q0.083 0 0.366-0.138v0 0q0.282-0.138 0.815-0.65v0 0q0.532-0.512 0.892-1.272zM19.054 21.303v0 0q0.733-0.677 2.103-2.239v0 0q0.041-0.043 0.068-0.043v0 0q0.027 0 0.027 0.056v0 0q0 0.264-0.207 0.512v0 0q-1.024 1.135-1.812 1.895v0 0q-0.58 0.582-1.383 1.113v0 0q-0.801 0.532-1.327 0.532v0 0q-0.636 0-0.636-0.884v0 0q0-1.467 1.085-3.071v0 0q1.086-1.604 2.51-2.171v0 0q0.594-0.248 1.078-0.248v0 0q0.54 0 0.54 0.428v0 0q0 0.803-1.135 1.839v0 0q-1.133 1.038-2.543 1.577v0 0q-0.056 0.014-0.097 0.097v0 0q-0.208 0.567-0.208 1.009v0 0q0 0.497 0.373 0.497v0 0q0.594 0 1.562-0.898zM22.248 20.736v0 0q0.58-0.58 1.534-1.672v0 0q0.043-0.043 0.070-0.043v0 0q0.027 0 0.027 0.056v0 0q0 0.264-0.207 0.512v0 0q-1.024 1.135-1.812 1.895v0 0q-1.659 1.604-2.198 1.604v0 0q-0.194 0-0.194-0.248v0 0q0-0.291 0.221-0.871v0 0q0.221-0.582 0.443-1.024v0l0.221-0.429q0.318-0.567 1.051-1.936v0 0q0.733-1.369 1.417-2.586v0 0q0.684-1.216 1.293-2.198v0h-1.092q-0.138 0-0.138-0.070v0 0q0-0.068 0.111-0.138v0 0q0.11-0.068 0.234-0.068v0 0q0.305 0 1.065-0.014v0 0q0.679-1.065 1.162-1.686v0 0q0.429-0.54 0.594-0.54v0 0q0.097 0 0.097 0.125v0 0q0 0.289-0.525 1.244v0l-0.47 0.857h1.424q0.124 0 0.124 0.070v0 0q0 0.221-0.401 0.221v0h-1.3q-3.195 6.056-3.36 6.346v0 0q-0.58 1.065-0.58 1.383v0 0q0 0.097 0.068 0.097v0 0q0.194 0 1.12-0.885zM26.494 21.953v0 0q-1.148 1.051-1.577 1.051v0 0q-0.194 0-0.194-0.221v0 0q0-0.277 0.242-0.844v0 0q0.242-0.567 0.49-0.995v0l0.249-0.429q0.056-0.097 0.056-0.124v0 0q0-0.029-0.029-0.029v0 0q-0.056 0-0.207 0.153v0 0q-0.415 0.456-0.948 0.975v0 0q-0.532 0.519-0.864 0.808v0l-0.318 0.277q-0.539 0.415-0.83 0.415v0 0q-0.305 0-0.305-0.469v0 0q0-0.235 0.133-0.72v0 0q0.131-0.483 0.2-0.65v0 0q0.318-0.774 0.795-1.507v0 0q0.478-0.733 1.128-1.404v0 0q0.649-0.67 1.514-1.085v0 0q0.864-0.415 1.79-0.415v0 0q0.774 0 0.774 0.235v0 0q0 0.138-0.345 0.138v0 0q-1.273 0-2.386 1.085v0 0q-1.113 1.086-1.805 2.496v0 0q-0.192 0.388-0.192 0.65v0 0q0 0.153 0.097 0.153v0 0q0.165 0 0.428-0.235v0 0q0.167-0.153 0.45-0.401v0 0q0.282-0.249 0.919-0.955v0 0q0.636-0.704 1.009-1.313v0 0q0.054-0.111 0.172-0.264v0 0q0.117-0.151 0.449-0.408v0 0q0.332-0.255 0.664-0.255v0 0q0.18 0 0.18 0.097v0 0q0 0.027-0.041 0.097v0 0q-0.056 0.11-0.311 0.553v0 0q-0.257 0.442-0.478 0.837v0 0q-0.221 0.393-0.47 0.857v0 0q-0.249 0.463-0.393 0.795v0 0q-0.145 0.331-0.145 0.442v0 0q0 0.083 0.068 0.083v0 0q0.208 0 1.009-0.801v0 0q0.609-0.637 1.424-1.562v0 0q0.043-0.043 0.070-0.043v0 0q0.027 0 0.027 0.056v0 0q0 0.264-0.207 0.512v0 0q-1.356 1.507-2.295 2.365zM31.61 16.090v0 0q0.981-0.691 1.762-1.569v0 0q0.781-0.878 1.19-1.618v0 0q0.408-0.74 0.614-1.279v0 0q0.208-0.539 0.208-0.774v0 0q0-0.138-0.097-0.138v0 0q-0.194 0-0.47 0.277v0 0q-0.526 0.525-1.189 1.521v0 0q-0.664 0.995-1.072 1.708v0 0q-0.408 0.711-1.058 1.9v0 0q0.056 0 0.111-0.027zM30.13 20.736v0 0q0.58-0.58 1.534-1.672v0 0q0.043-0.043 0.070-0.043v0 0q0.027 0 0.027 0.056v0 0q0 0.264-0.207 0.512v0 0q-1.024 1.135-1.812 1.895v0 0q-1.728 1.632-2.198 1.632v0 0q-0.208 0-0.208-0.291v0 0q0-0.153 0.036-0.332v0 0q0.034-0.18 0.117-0.393v0 0q0.083-0.215 0.145-0.359v0 0q0.063-0.145 0.18-0.415v0 0q0.117-0.271 0.16-0.368v0 0q0.386-0.871 2.378-4.59v0 0q2.724-4.964 5.005-6.098v0 0q0.332-0.165 0.664-0.165v0 0q0.388 0 0.388 0.359v0 0q0 0.83-0.567 1.819v0 0q-0.567 0.988-1.383 1.818v0 0q-0.815 0.83-1.597 1.453v0 0q-0.783 0.622-1.349 0.939v0 0q-0.083 0.029-0.153 0.125v0 0q-0.609 0.981-1.189 2.108v0 0q-0.58 1.126-0.871 1.776v0l-0.277 0.637q-0.070 0.207-0.070 0.277v0 0q0 0.124 0.097 0.124v0 0q0.277 0 1.079-0.803zM37.818 20.736v0 0q0.58-0.58 1.535-1.672v0 0q0.041-0.043 0.068-0.043v0 0q0.029 0 0.029 0.056v0 0q0 0.264-0.208 0.512v0 0q-1.024 1.135-1.812 1.895v0 0q-1.659 1.535-2.184 1.535v0 0q-0.208 0-0.208-0.262v0 0q0-0.499 0.567-1.515v0 0q0.567-1.016 1.128-1.895v0 0q0.559-0.877 0.559-1.029v0 0q0-0.083-0.083-0.083v0 0q-0.332 0-1.259 1.022v0 0q-0.925 1.024-1.562 1.839v0 0q-0.704 0.885-1.223 1.411v0 0q-0.519 0.526-0.684 0.594v0l-0.18 0.083q-0.125 0-0.125-0.138v0 0q0-0.221 0.249-0.788v0 0q0.249-0.566 0.498-1.024v0l0.249-0.456 2.157-3.872q2.545-4.493 4.010-6.388v0 0q0.415-0.553 0.58-0.553v0 0q0.084 0 0.084 0.111v0 0q0 0.289-0.443 1.189v0 0q-2.171 3.913-3.014 5.42v0 0q-0.512 0.912-0.927 1.625v0 0q-0.415 0.711-0.589 1.002v0 0q-0.172 0.291-0.297 0.505v0 0q-0.124 0.215-0.194 0.366v0 0q-0.014 0.041-0.014 0.083v0 0q0 0.070 0.029 0.070v0 0q0.027 0 0.11-0.083v0 0q3.098-3.444 4.066-3.444v0 0q0.194 0 0.194 0.194v0 0q0 0.056-0.056 0.242v0 0q-0.056 0.187-0.318 0.754v0 0q-0.262 0.566-0.691 1.257v0 0q-0.262 0.388-0.664 1.106v0 0q-0.401 0.72-0.401 0.941v0 0q0 0.124 0.125 0.124v0 0q0.041 0 0.117-0.034v0 0q0.076-0.034 0.172-0.117v0 0q0.097-0.084 0.172-0.153v0 0q0.077-0.070 0.222-0.201v0 0q0.144-0.131 0.214-0.187zM42.063 21.953v0 0q-1.148 1.051-1.577 1.051v0 0q-0.194 0-0.194-0.221v0 0q0-0.277 0.242-0.844v0 0q0.242-0.567 0.49-0.995v0l0.249-0.429q0.056-0.097 0.056-0.124v0 0q0-0.029-0.029-0.029v0 0q-0.054 0-0.207 0.153v0 0q-0.415 0.456-0.948 0.975v0 0q-0.532 0.519-0.864 0.808v0l-0.318 0.277q-0.539 0.415-0.83 0.415v0 0q-0.304 0-0.304-0.469v0 0q0-0.235 0.131-0.72v0 0q0.131-0.483 0.2-0.65v0 0q0.319-0.774 0.795-1.507v0 0q0.478-0.733 1.128-1.404v0 0q0.65-0.67 1.514-1.085v0 0q0.864-0.415 1.79-0.415v0 0q0.774 0 0.774 0.235v0 0q0 0.138-0.345 0.138v0 0q-1.273 0-2.385 1.085v0 0q-1.113 1.086-1.805 2.496v0 0q-0.194 0.388-0.194 0.65v0 0q0 0.153 0.097 0.153v0 0q0.165 0 0.429-0.235v0 0q0.165-0.153 0.449-0.401v0 0q0.284-0.249 0.919-0.955v0 0q0.636-0.704 1.009-1.313v0 0q0.056-0.111 0.172-0.264v0 0q0.118-0.151 0.449-0.408v0 0q0.332-0.255 0.664-0.255v0 0q0.18 0 0.18 0.097v0 0q0 0.027-0.041 0.097v0 0q-0.056 0.11-0.311 0.553v0 0q-0.257 0.442-0.478 0.837v0 0q-0.221 0.393-0.47 0.857v0 0q-0.248 0.463-0.393 0.795v0 0q-0.145 0.331-0.145 0.442v0 0q0 0.083 0.068 0.083v0 0q0.208 0 1.011-0.801v0 0q0.607-0.637 1.424-1.562v0 0q0.041-0.043 0.068-0.043v0 0q0.029 0 0.029 0.056v0 0q0 0.264-0.208 0.512v0 0q-1.354 1.507-2.295 2.365zM48.935 16.422v0 0q-0.014 0.386-2.088 3.333v0 0q-0.041 0.054-0.041 0.083v0 0q0 0.097 0.359 0.097v0 0q0.677 0 1.508-0.982v0 0q0.013-0.014 0.041-0.014v0 0q0.068 0 0.068 0.138v0 0q0 0.153-0.332 0.526v0 0q-0.594 0.663-1.451 0.663v0 0q-0.138 0-0.249-0.020v0 0q-0.11-0.021-0.165-0.041v0 0q-0.056-0.021-0.070-0.021v0l-0.068 0.041q-0.774 0.941-1.424 1.639v0 0q-0.65 0.698-0.927 0.934v0l-0.262 0.221q-0.222 0.165-0.346 0.165v0 0q-0.165 0-0.165-0.262v0 0q0-0.912 0.726-2.925v0 0q0.726-2.011 1.043-2.523v0 0q0.443-0.706 1.093-0.706v0 0q0.096 0 0.096 0.097v0 0q0 0.070-0.11 0.291v0 0q-1.203 2.503-1.494 4.272v0 0q0 0.153 0.056 0.153v0 0q0.056 0 0.165-0.097v0 0q0.596-0.429 1.341-1.494v0 0q0.029-0.041 0.029-0.096v0 0q-0.056-0.125-0.056-0.332v0 0q0-0.83 0.837-1.846v0 0q0.837-1.016 1.694-1.334v0 0q0.083-0.029 0.111-0.029v0 0q0.083 0 0.083 0.070zM51.051 18.137v0 0q0.165-0.346 0.165-0.609v0 0q0-0.221-0.138-0.221v0 0q-0.083 0-0.187 0.048v0 0q-0.103 0.048-0.158 0.103v0l-0.070 0.056q-0.428 0.373-1.071 1.363v0 0q-0.644 0.988-0.644 1.264v0 0q0 0.056 0.029 0.056v0 0q0.083 0 0.366-0.138v0 0q0.284-0.138 0.815-0.65v0 0q0.533-0.512 0.892-1.272zM50.428 21.303v0 0q0.734-0.677 2.103-2.239v0 0q0.041-0.043 0.068-0.043v0 0q0.029 0 0.029 0.056v0 0q0 0.264-0.208 0.512v0 0q-1.024 1.135-1.81 1.895v0 0q-0.582 0.582-1.384 1.113v0 0q-0.801 0.532-1.327 0.532v0 0q-0.636 0-0.636-0.884v0 0q0-1.467 1.086-3.071v0 0q1.085-1.604 2.509-2.171v0 0q0.594-0.248 1.079-0.248v0 0q0.539 0 0.539 0.428v0 0q0 0.803-1.133 1.839v0 0q-1.135 1.038-2.545 1.577v0 0q-0.056 0.014-0.097 0.097v0 0q-0.208 0.567-0.208 1.009v0 0q0 0.497 0.373 0.497v0 0q0.594 0 1.562-0.898zM55.849 21.483v0 0q-1.618 1.521-2.13 1.521v0 0q-0.235 0-0.235-0.248v0 0q0-0.153 0.070-0.381v0 0q0.068-0.228 0.172-0.456v0 0q0.104-0.228 0.201-0.422v0 0q0.096-0.194 0.192-0.359v0 0q0.097-0.167 0.097-0.181v0 0q0.208-0.372 0.623-1.043v0 0q0.415-0.67 0.663-1.106v0 0q0.249-0.435 0.249-0.532v0 0q0-0.070-0.070-0.070v0l-0.192 0.070q-0.637 0.456-1.521 1.417v0 0q-0.885 0.961-1.453 1.694v0l-0.567 0.72q-0.18 0.262-0.318 0.428v0 0q-0.138 0.167-0.393 0.325v0 0q-0.257 0.16-0.519 0.16v0 0q-0.194 0-0.194-0.111v0 0q0-0.11 0.264-0.643v0 0q0.262-0.532 0.525-1.016v0l0.262-0.47 1.356-2.378q0.208-0.346 0.339-0.532v0 0q0.131-0.187 0.366-0.47v0 0q0.235-0.284 0.505-0.422v0 0q0.269-0.138 0.573-0.167v0 0q0.111 0 0.111 0.097v0 0q0 0.084-0.041 0.138v0 0q-0.318 0.499-0.975 1.646v0 0q-0.657 1.148-0.837 1.493v0 0q-0.041 0.083-0.041 0.125v0 0q0 0.027 0.027 0.027v0 0q0.029 0 0.14-0.083v0 0q0.262-0.305 0.684-0.761v0 0q0.422-0.456 1.431-1.376v0 0q1.009-0.919 1.659-1.237v0 0q0.151-0.070 0.289-0.070v0 0q0.194 0 0.194 0.222v0 0q-0.11 0.65-1.065 2.225v0 0q-1.051 1.729-1.051 2.047v0 0q0 0.111 0.097 0.111v0 0q0.068 0 0.158-0.048v0 0q0.090-0.048 0.201-0.138v0 0q0.111-0.090 0.187-0.16v0 0q0.076-0.068 0.201-0.187v0 0q0.124-0.117 0.151-0.145v0 0q0.582-0.58 1.535-1.672v0 0q0.041-0.043 0.070-0.043v0 0q0.027 0 0.027 0.056v0 0q0 0.264-0.207 0.512v0 0q-1.024 1.135-1.812 1.895z">
      </path>
    </symbol>
    <symbol id="icon-burger" viewBox="0 0 32 32">
      <path d="M0 5.76v1.28h32V5.76zm0 9.6v1.28h32v-1.28zm0 9.6v1.28h32v-1.28z" />
    </symbol>
  </defs>
</svg>