<?xml version="1.0" ?><svg xmlns="http://www.w3.org/2000/svg" xmlns:xlink="http://www.w3.org/1999/xlink" version="1.1" viewBox="0 0 512 512" style="enable-background:new 0 0 512 512;" xml:space="preserve"><g id="_x31_6_x2C__Rose_x2C__Botanical_x2C__Blossom_x2C__Petals_x2C__Flower"><g><path d="M504.247,192.031l-78.518-27.631l45.49-45.49c5.229-5.23,3.202-14.142-3.773-16.596L337.081,56.436L319.936,7.717    c-2.455-6.976-11.368-9-16.595-3.772C172.47,134.812,181.644,125.523,178.071,129.48c-49.136,54.373-49.699,136.892-1.725,191.921    l-72.003,72.003c4.259-30.154-5.181-61.89-28.324-85.033l-31.442-31.442c-3.927-3.927-10.294-3.927-14.221,0    c-39.093,39.093-39.093,102.703,0,141.796c0,0,0,0,0,0l24.333,24.333l-43.755,43.755c-3.926,3.926-3.926,10.293,0,14.22    c3.926,3.927,10.294,3.926,14.22,0l43.754-43.754l24.331,24.332c0,0,0,0,0,0c39.19,39.189,102.613,39.182,141.796-0.001    c3.927-3.927,3.924-10.296-0.001-14.22l-31.442-31.441c-23.182-23.183-54.845-32.646-84.954-28.401l71.928-71.928    c56.878,49.539,143.352,47.108,197.32-6.86c15.505-15.505,109.872-109.874,120.132-120.134    C513.249,203.396,511.221,194.484,504.247,192.031z M189.374,450.169l23.889,23.888c-31.417,24.402-76.957,22.179-105.802-6.667    l-23.893-23.893C114.643,419.296,160.158,420.952,189.374,450.169z M445.706,115.982l-41.015,41.014l-36.777-12.942l-22.27-63.285    L445.706,115.982z M306.268,29.458l91.751,260.728l-24.355,24.355c-48.451,48.451-127.54,48.698-176.237-0.001c0,0,0,0,0,0    c-48.59-48.59-48.59-127.651,0-176.24L306.268,29.458z"/><path d="M240.536,271.429c-27.635-27.634-27.63-72.36,0-99.989l42.659-42.659c3.927-3.927,3.927-10.294,0-14.221    s-10.294-3.927-14.221,0l-42.659,42.659c-35.408,35.409-35.408,93.022,0,128.431L240.536,271.429z"/></g></g><g id="Layer_1"/></svg>